<svg width="118" height="91" viewBox="0 0 118 91" fill="none" xmlns="http://www.w3.org/2000/svg">
<path d="M57.0411 11.9399C57.0411 8.27816 54.062 5.29883 50.4001 5.29883C46.7393 5.29883 43.7612 8.27791 43.7612 11.9399C43.7612 15.6019 46.7393 18.5809 50.4001 18.5809C54.062 18.5809 57.0411 15.6019 57.0411 11.9399ZM46.2294 11.9399C46.2294 9.639 48.1004 7.7668 50.4003 7.7668C52.7012 7.7668 54.5734 9.63875 54.5734 11.9399C54.5734 14.241 52.7014 16.113 50.4003 16.113C48.1004 16.113 46.2294 14.241 46.2294 11.9399Z" fill="#E84526"/>
<path d="M51.3247 31.1277C52.4662 29.8382 62.4785 18.3493 62.4785 12.0755C62.4785 5.41719 57.0603 0 50.4007 0C43.7424 0 38.3252 5.41694 38.3252 12.0755C38.3252 18.3491 48.3353 29.8382 49.4767 31.1275L50.4005 32.1712L51.3247 31.1277ZM40.7934 12.0758C40.7934 6.77827 45.1032 2.46821 50.401 2.46821C55.6997 2.46821 60.0107 6.77803 60.0107 12.0758C60.0107 16.1812 53.7493 24.4514 50.401 28.4206C47.0532 24.4521 40.7934 16.1842 40.7934 12.0758Z" fill="#E84526"/>
<path d="M18.9925 69.6191H7.09839V72.0871H18.9925V69.6191Z" fill="#E84526"/>
<path d="M4.22251 69.6191H0.334473V72.0871H4.22251V69.6191Z" fill="#E84526"/>
<path d="M18.9923 76.3613H11.8135V78.8293H18.9923V76.3613Z" fill="#E84526"/>
<path d="M43.4465 51.2109H37.1228V53.6789H43.4465V51.2109Z" fill="#E84526"/>
<path d="M6.38696 26.1907V49.6874H9.09037H16.0819L29.1145 59.4924C29.0755 59.8352 29.0434 60.1827 29.0202 60.5354C25.298 63.7701 22.9954 68.21 22.9954 73.1035V78.2816H27.4745C27.8422 82.3085 29.9901 85.8264 33.1229 88.0429H15.8361V90.5108H61.7403V88.0429H48.6309C50.1963 86.9355 51.5155 85.5038 52.4903 83.8448H60.78L64.7342 81.8041C65.8243 82.3971 67.0728 82.7345 68.3981 82.7345H86.2632L86.8464 82.7338L87.2166 82.2841C87.2378 82.2582 87.6534 81.7621 88.4217 80.9721C89.3961 83.9132 91.3625 86.393 93.8971 88.0429H73.0929V90.5108H117.666V88.0429H108.546C112.23 85.6386 114.672 81.483 114.672 76.7655C114.672 73.7768 113.666 70.8863 111.863 68.5444C113.152 68.3793 114.478 68.2885 115.838 68.2885C116.872 68.2885 117.215 67.5834 117.295 67.3672C117.707 66.2598 116.729 65.417 115.25 64.1413C114.917 63.8541 114.602 63.5831 114.42 63.4C111.45 60.4273 107.71 58.5099 103.653 57.8221L93.54 33.0393H96.5885V31.8823H96.8417C99.0127 31.8823 100.779 30.1162 100.779 27.9454V27.8607C100.779 25.6899 99.0127 23.9236 96.8417 23.9236H96.5885V22.7666H88.0523C85.2173 22.7666 82.9107 25.0732 82.9107 27.9081V30.2971C82.9107 30.3897 82.9157 30.4807 82.9246 30.5708H81.4208L76.1715 25.3212H70.006V27.7892H75.1492L80.3986 33.0388H85.3501L82.6109 41.3398L86.3096 63.2499C84.4912 65.0256 83.0045 67.1468 81.9618 69.5148H67.9524C67.2878 68.1525 66.7497 66.7339 66.3443 65.2657C64.5236 58.6686 65.9143 52.842 67.0977 49.5942C68.3853 49.2699 69.3421 48.1055 69.3421 46.719C69.3421 42.6777 66.0543 39.3898 62.013 39.3898H36.6107C33.7718 39.3898 31.462 41.6994 31.462 44.5385C31.462 45.521 31.7436 46.4371 32.2234 47.2192H29.8837V26.1907H6.38696ZM8.85493 47.2195V28.6586H27.4158V47.2195H9.09037H8.85493ZM25.4634 73.1033C25.4634 64.5932 33.717 57.6693 43.8621 57.6693H48.5243C55.2369 57.6693 60.698 62.2222 60.698 67.8186V73.7886V75.0226V75.8133H54.2838C53.6589 68.966 47.8856 63.5841 40.879 63.5841C33.8712 63.5841 28.0969 68.966 27.472 75.8133H25.4636L25.4634 73.1033ZM29.9548 75.8133C30.5703 70.3295 35.2336 66.052 40.8788 66.052C46.523 66.052 51.1853 70.3295 51.8005 75.8133H29.9548ZM44.5175 78.2813C44.0017 79.7976 42.5671 80.8927 40.8788 80.8927C39.1895 80.8927 37.7541 79.7974 37.238 78.2813H44.5175ZM40.8763 88.0426C35.2321 88.0426 30.5698 83.7651 29.9546 78.2813H34.6849C35.2607 81.1738 37.8185 83.3606 40.8788 83.3606C43.9378 83.3606 46.4949 81.1738 47.0704 78.2813H51.8005C51.6786 79.3684 51.3985 80.4082 50.9819 81.3766H46.6079V83.8446H49.509C47.4939 86.3985 44.3744 88.0426 40.8763 88.0426ZM60.181 81.3766H53.6211C53.957 80.3904 54.1824 79.3546 54.2803 78.2813H61.4212C61.7346 78.9509 62.1408 79.5676 62.6233 80.1162L60.181 81.3766ZM112.204 76.7652C112.204 82.8268 107.272 87.7581 101.209 87.7581C96.0151 87.7581 91.5022 84.0462 90.4479 79.0237C91.671 77.9195 93.2197 76.6404 95.0544 75.3573C94.9507 75.8104 94.8944 76.2808 94.8944 76.7647C94.8944 80.2463 97.7269 83.079 101.209 83.079C104.691 83.079 107.523 80.2463 107.523 76.7647C107.523 74.026 105.77 71.6899 103.328 70.8172C105.112 70.0928 107.016 69.4773 109.029 69.0358C111.053 71.0904 112.204 73.873 112.204 76.7652ZM98.4434 74.0976L100.112 77.3306L102.305 76.1986L100.636 72.9656C100.824 72.9374 101.014 72.9182 101.209 72.9182C103.33 72.9182 105.055 74.6438 105.055 76.7647C105.055 78.8857 103.33 80.6111 101.209 80.6111C99.0878 80.6111 97.3624 78.8857 97.3624 76.7647C97.3624 75.7292 97.7756 74.7899 98.4434 74.0976ZM96.8419 26.3915C97.6521 26.3915 98.3111 27.0505 98.3111 27.8607V27.9454C98.3111 28.7554 97.6521 29.4143 96.8419 29.4143H96.5887V26.3915H96.8419ZM85.379 30.2974V27.9084C85.379 26.434 86.5781 25.2348 88.0525 25.2348H94.1207V30.5713H88.0278H85.6526C85.5016 30.5711 85.379 30.4481 85.379 30.2974ZM85.1465 41.5325L87.9486 33.0403H90.8751L100.876 57.5477C100.675 57.542 100.476 57.5329 100.274 57.5329C95.9108 57.5329 91.8273 58.9648 88.5002 61.3994L85.1465 41.5325ZM100.275 60.0008C104.957 60.0008 109.361 61.8274 112.673 65.1433C112.893 65.363 113.191 65.6236 113.513 65.9015C105.089 66.4884 98.1647 70.1511 93.6995 73.2652C89.4548 76.2255 86.6768 79.1636 85.6983 80.2663H68.3981C65.941 80.2663 63.8746 78.5604 63.3151 76.2682H72.5796L72.5697 76.2561L82.7577 76.2556L82.9018 75.1867C84.0712 66.5293 91.5397 60.0008 100.275 60.0008ZM81.0652 71.9831C80.8939 72.5736 80.7476 73.1751 80.6303 73.7879L70.599 73.7884C70.1499 73.2015 69.7296 72.5991 69.3372 71.9833H81.0652V71.9831ZM67.5662 73.7884L63.1658 73.7886V67.8186C63.1658 60.8617 56.5975 55.2014 48.524 55.2014H43.8618C39.3459 55.2014 35.1642 56.4425 31.7453 58.5425C32.4603 54.4667 34.2762 51.3067 35.3814 49.6882H64.4553C63.2578 53.3645 62.1327 59.2807 63.9656 65.9225C64.7386 68.7234 65.9464 71.3596 67.5662 73.7884ZM36.6107 41.8581H62.0132C64.6937 41.8581 66.8744 44.0388 66.8744 46.7192C66.8744 46.9949 66.65 47.2195 66.3741 47.2195H36.6107C35.1326 47.2195 33.93 46.0168 33.93 44.5388C33.93 43.0607 35.1326 41.8581 36.6107 41.8581ZM32.463 49.6874C31.4588 51.3923 30.291 53.823 29.5925 56.7636L20.1871 49.6874H29.8837H32.463Z" fill="#E84526"/>
<path d="M25.2139 31.5996H18.1348V34.0676H25.2139V31.5996Z" fill="#E84526"/>
<path d="M69.473 88.042H65.1978V90.51H69.473V88.042Z" fill="#E84526"/>
<path d="M12.9976 88.042H9.09009V90.51H12.9976V88.042Z" fill="#E84526"/>
</svg>
