<svg width="88" height="88" viewBox="0 0 88 88" fill="none" xmlns="http://www.w3.org/2000/svg">
<path d="M83.6792 59.0572C83.1658 57.2833 81.8031 52.5719 77.1953 48.7512C75.521 47.3643 72.4059 44.782 67.7656 44.6231C67.4649 44.6135 66.1279 44.5917 64.4387 44.9026C62.8729 44.2086 61.4799 43.7483 60.4041 43.458C57.5537 42.6889 54.6072 42.3703 51.644 42.5203L51.4188 42.532L51.2702 42.7013C51.2439 42.731 48.6153 45.6769 44.436 45.6769H44.3786C40.5386 45.652 38.764 42.8879 38.6908 42.7711L38.5443 42.5341L38.2658 42.5203C35.3013 42.3717 32.3562 42.6889 29.505 43.458C27.5024 43.9984 24.4212 45.0992 21.1153 47.2787C20.0892 47.9551 19.2222 48.6201 18.4335 49.2932C13.1607 50.4175 9.40489 55.3169 9.8668 60.8276C10.1087 63.723 11.4638 66.3502 13.6826 68.2264C15.6638 69.9014 18.1218 70.7983 20.6869 70.7977C20.9944 70.7977 21.3032 70.7852 21.6128 70.759C27.5895 70.2587 32.0452 64.9896 31.5442 59.0129C31.3024 56.1182 29.9473 53.4903 27.7284 51.6141C25.6728 49.876 23.1 48.986 20.4339 49.0586C20.8323 48.7611 21.2462 48.4636 21.6999 48.1645C24.8869 46.0631 27.8535 45.0024 29.7814 44.4835C32.4412 43.7662 35.1901 43.4587 37.9528 43.5685C38.5249 44.3459 40.5773 46.7141 44.3717 46.7383H44.4374C48.5483 46.7383 51.2405 44.261 51.9108 43.5706C54.6935 43.4531 57.4535 43.762 60.1277 44.4835C60.8533 44.6788 61.7262 44.9512 62.7023 45.3265C60.8754 45.8853 58.9196 46.8778 57.4908 48.6483C54.4233 52.4482 52.4968 56.3933 51.7636 60.3736C51.2626 63.0879 50.6393 66.4663 52.6495 68.603C53.9182 69.9525 55.7446 70.2635 57.0776 70.4902C57.7409 70.6028 58.4154 70.6595 59.094 70.6595C60.552 70.6588 62.0294 70.4003 63.4523 69.891C63.4816 69.8931 63.5112 69.8934 63.5405 69.8954C64.8741 70.4804 66.2928 70.7949 67.7359 70.7949C68.022 70.7949 68.3088 70.7831 68.5956 70.759C69.8108 70.6575 70.9375 70.3471 71.9658 69.8811C72.3272 69.8561 72.6912 69.8393 73.0499 69.8081C74.8597 70.3284 76.7185 70.5689 78.5864 70.524C80.7811 70.4708 82.1058 70.439 83.1762 69.5863C86.0591 67.2907 84.268 61.0943 83.6792 59.0572ZM28.2011 66.2576C26.5081 68.2595 24.1371 69.4827 21.5244 69.7017C18.9068 69.9215 16.3693 69.1074 14.3681 67.4158C12.3656 65.7228 11.1424 63.3519 10.9241 60.7391C10.8928 60.3649 10.8885 59.9931 10.899 59.6232C11.2638 59.7477 11.6911 59.8734 12.2377 59.9693C12.6993 60.0495 13.3876 60.1345 14.2375 60.1345C15.1974 60.1345 16.3631 60.026 17.6415 59.6805C18.4583 59.46 19.8252 59.091 21.3033 58.0269C21.8664 57.6212 22.3875 57.1569 22.8567 56.642C23.6527 57.3759 24.5573 57.9626 25.5524 58.3889C27.5045 59.2248 29.6678 59.1835 30.488 59.1298C30.6981 61.7325 29.8879 64.263 28.2011 66.2576ZM19.8867 50.1388C20.1665 50.1153 20.445 50.1043 20.7221 50.1043C23.037 50.1043 25.2552 50.9135 27.0429 52.4247C28.7794 53.8928 29.9271 55.8713 30.3445 58.0745C29.5927 58.1157 27.659 58.1363 25.9704 57.4132C24.9291 56.9668 23.9989 56.3228 23.2056 55.4984L22.7896 55.0658L22.4117 55.5323C21.9086 56.1528 21.3267 56.7022 20.6827 57.1658C19.3615 58.1167 18.1114 58.4546 17.3651 58.6564C15.1518 59.2541 13.3178 59.0807 12.4201 58.9231C11.8192 58.8181 11.3778 58.6733 10.9946 58.5328C11.2499 56.7218 12.0001 55.0136 13.21 53.5829C14.1433 52.4793 15.2876 51.6226 16.5599 51.0301C17.312 50.6799 18.1058 50.4161 18.9357 50.2654C19.2485 50.2086 19.5657 50.1657 19.8867 50.1388ZM71.6922 68.8355C70.7252 69.2948 69.662 69.6052 68.5071 69.7017C66.8847 69.8377 65.2643 69.5363 63.7694 68.842C62.8946 68.4357 62.0623 67.8961 61.299 67.2271C59.2847 65.4616 58.0167 63.043 57.9075 60.7578C57.8432 59.4158 58.1784 58.0559 58.9032 56.7111C60.4131 56.7201 61.9209 56.6642 63.4239 56.5474L63.5856 56.5342C66.2495 56.3269 68.353 56.1632 70.7971 55.3125C72.2089 54.8212 73.5785 54.1896 74.8749 53.4329C76.0158 54.6788 77.2859 56.5999 77.469 59.0959C77.7396 62.791 75.501 67.0266 71.6922 68.8355ZM82.5148 68.7557C81.7236 69.3866 80.6 69.4136 78.5601 69.4626C76.9309 69.5023 75.3019 69.2974 73.7108 68.8769C76.9562 66.5706 78.7873 62.5674 78.5276 59.0185C78.3058 55.9904 76.675 53.7418 75.3462 52.3881L75.0511 52.0875L74.6918 52.3065C73.3512 53.1226 71.9235 53.7971 70.4489 54.3105C68.1339 55.1156 66.1915 55.2669 63.5034 55.4763L63.341 55.4887C61.7641 55.6124 60.1699 55.6642 58.5999 55.647L58.2896 55.6435L58.1341 55.9116C57.202 57.5231 56.7687 59.1705 56.8475 60.8089C56.9705 63.3761 58.3725 66.0738 60.599 68.0253C61.0948 68.4598 61.6179 68.8431 62.1606 69.1786C60.5316 69.6199 58.8551 69.7169 57.2559 69.4439C56.0044 69.2311 54.4475 68.9665 53.422 67.876C51.7802 66.1305 52.3261 63.1743 52.807 60.5657C53.5077 56.7609 55.3617 52.9755 58.3173 49.3144C59.933 47.3128 62.3256 46.4117 64.3033 46.006C64.9933 45.8645 65.6309 45.7814 66.1681 45.7362C66.6965 45.6917 67.1315 45.6796 67.4146 45.6796C67.5604 45.6796 67.6675 45.6817 67.729 45.6845C72.0071 45.8303 74.8307 48.1708 76.5223 49.5722C80.8744 53.1807 82.1714 57.6641 82.66 59.3529C84.1077 64.3629 84.0593 67.5264 82.5148 68.7557ZM26.7389 38.7176L27.3428 38.9463C28.6979 39.4604 30.0046 39.9559 31.0564 39.9559C31.6154 39.9559 32.1033 39.8156 32.4875 39.4639C33.0797 38.9228 33.1267 37.9498 33.2241 35.9521C33.2432 35.5703 33.2514 35.1856 33.2542 34.8009C35.261 36.2557 37.4634 37.2912 39.8158 37.8821C41.6366 38.3396 43.2212 38.4439 44.2867 38.4439C44.758 38.4439 45.1277 38.4232 45.3716 38.4045C46.6106 38.305 49.0472 37.9512 51.4506 36.6901C52.8262 35.9683 54.0793 34.9954 55.1783 33.8487C55.2373 34.6871 55.2898 35.4063 55.3313 35.9652C55.5186 38.4743 55.5573 38.9967 56.0666 39.4639C56.4515 39.8156 56.9387 39.9559 57.4984 39.9559C58.5501 39.9559 59.8569 39.4604 61.212 38.9463L61.8159 38.7176C63.9857 37.9008 65.6995 37.2554 66.8293 35.6218C67.398 34.8015 67.9529 33.3614 67.7629 28.9023C67.6523 26.2923 67.5563 24.0388 66.7277 20.8491C65.5343 16.2503 64.0486 10.5272 59.0145 6.07359C56.6015 3.93815 53.9514 2.62495 51.4706 1.81606L51.4692 1.81481L51.4687 1.81542C48.6986 0.912423 46.1476 0.641931 44.3781 0.589112L44.3779 0.582031C44.3462 0.58272 44.3097 0.584752 44.2774 0.585575C44.2451 0.584752 44.2086 0.582727 44.1768 0.582031L44.1767 0.589112C40.8221 0.689223 34.649 1.55309 29.5403 6.0736C24.5082 10.5259 23.0218 16.2489 21.827 20.8491C20.9985 24.0388 20.9025 26.2923 20.7919 28.9023C20.6019 33.3614 21.1567 34.8015 21.7248 35.6218C22.8553 37.2554 24.569 37.9008 26.7389 38.7176ZM50.9572 35.7503C48.7217 36.9237 46.4448 37.254 45.288 37.3459C44.5445 37.4046 42.5488 37.4737 40.0742 36.8525C37.6949 36.2548 35.4788 35.1689 33.4738 33.6344C32.5933 31.9086 32.03 30.0725 31.8234 28.1622C31.4717 24.9171 32.2035 22.1945 32.9491 20.3792C35.6427 20.8484 40.513 21.1172 45.5796 18.55C49.4998 16.5654 51.9315 13.6921 53.2811 11.6315L52.8374 11.3406L53.2831 11.6281C53.3561 11.5151 53.4343 11.378 53.5134 11.227C55.3889 12.7878 56.8553 14.779 57.7693 17.0353C58.528 18.9066 58.7395 20.5471 58.7982 21.3577C59.2121 27.0959 55.9146 33.1486 50.9572 35.7503ZM58.311 6.86827C63.1026 11.1077 64.5434 16.6566 65.7009 21.1158C66.5011 24.1964 66.5902 26.293 66.7028 28.9479C66.9025 33.651 66.2157 34.644 65.9565 35.0178C65.0154 36.3792 63.5939 36.914 61.4421 37.7246L60.8354 37.9533C59.1513 38.5925 57.4079 39.2517 56.7839 38.681C56.6028 38.5151 56.5476 38.0031 56.39 35.8864C56.332 35.107 56.2532 34.0269 56.164 32.7264L56.1525 32.7272C58.6984 29.5364 60.1495 25.338 59.8569 21.2817C59.794 20.4082 59.5659 18.6433 58.7533 16.6373C57.7304 14.1127 56.0625 11.9001 53.9258 10.198C54.2082 9.25914 54.3581 7.98174 54.0232 6.3438C53.7856 5.17946 53.2972 4.19622 52.8104 3.44508C54.663 4.22089 56.555 5.31424 58.311 6.86827ZM21.8519 28.9479C21.9646 26.293 22.0537 24.1964 22.8546 21.1144C24.0128 16.6553 25.4542 11.1056 30.2437 6.86828C35.1376 2.53806 41.0858 1.73367 44.2774 1.64781C45.9261 1.69216 48.309 1.93329 50.9051 2.74852C51.3192 3.16694 52.5781 4.56928 52.9839 6.55662C53.4842 9.00592 52.7391 10.5129 52.3936 11.0501C51.1145 13.0028 48.8113 15.7246 45.1001 17.6033C40.0383 20.1684 35.1769 19.7421 32.73 19.259L32.314 19.1775L32.142 19.5658C31.2934 21.4876 30.3654 24.5599 30.7675 28.2769C30.9618 30.0698 31.4552 31.7997 32.206 33.4443L32.1717 33.4458C32.2069 34.2612 32.2042 35.0862 32.1613 35.9611C32.0908 37.397 32.0404 38.4342 31.7709 38.6803C31.1469 39.2524 29.4028 38.5925 27.7194 37.9533L27.1127 37.7246C24.9608 36.914 23.5394 36.3792 22.5975 35.0178C22.3391 34.644 21.6522 33.651 21.8519 28.9479ZM20.6033 73.2543C17.8938 73.2543 15.3099 73.6731 12.9523 74.4282C12.7275 73.8628 12.2974 73.1096 11.4831 72.5377C11.195 72.3352 10.5862 71.9759 9.74795 71.8439C8.69828 71.6787 7.87942 71.9634 7.27962 72.1714C6.83736 72.3255 6.32255 72.6234 5.20239 73.2833C3.64621 74.1982 3.3622 74.4408 3.08372 74.7745C2.87019 75.0302 2.37127 75.6293 2.20473 76.5422C2.04096 77.435 2.28282 78.1322 2.45903 78.6415C2.73311 79.4337 3.13183 80.0928 3.5515 80.6316C1.95981 82.6384 0.956877 84.9479 0.712646 87.418H1.77881C2.01341 85.2487 2.89149 83.2162 4.27026 81.4282C4.75945 81.9011 5.20072 82.2126 5.41731 82.3488C6.36401 82.9452 7.22711 83.1753 7.66107 83.2603C8.05357 83.3363 8.49306 83.422 8.95812 83.422C9.42802 83.422 9.92417 83.3342 10.4231 83.0606C11.347 82.5513 11.7602 81.6799 11.9247 81.2059C12.0836 80.7457 12.2177 79.8743 11.546 77.6298C11.4098 77.1738 11.2538 76.719 11.0847 76.2672C13.882 75.0291 17.1336 74.3157 20.6033 74.3157C30.4986 74.3157 38.6363 80.0937 39.4284 87.418H40.4945C39.7124 79.5078 31.093 73.2543 20.6033 73.2543ZM10.6822 75.2924C10.6077 75.1193 10.5428 74.943 10.4639 74.7718L9.50057 75.2168C9.5806 75.3904 9.64672 75.5691 9.72191 75.7447C9.86072 76.0689 9.99728 76.3929 10.1188 76.722C10.2673 77.1242 10.4078 77.5283 10.5288 77.9339C10.8266 78.9269 11.1355 80.2398 10.9213 80.859C10.8073 81.1886 10.524 81.7933 9.91103 82.1305C9.25732 82.4905 8.54902 82.3523 7.86076 82.2175C7.5035 82.1478 6.78414 81.9549 5.98256 81.4505C5.78946 81.3287 5.38677 81.0447 4.94633 80.6087C4.71933 80.384 4.4868 80.116 4.2614 79.805C3.95385 79.3806 3.66634 78.8842 3.4624 78.2946C3.30899 77.8523 3.13554 77.3513 3.24887 76.7336C3.36497 76.0951 3.72568 75.6625 3.89913 75.4545C4.07465 75.243 4.2861 75.0537 5.74071 74.1982C6.77102 73.5915 7.28169 73.295 7.62789 73.1741C8.17587 72.9848 8.79711 72.7699 9.5828 72.8929C10.2096 72.991 10.6601 73.2563 10.8729 73.4056C11.4537 73.814 11.775 74.3542 11.9488 74.7731C11.5168 74.9336 11.0964 75.1092 10.6822 75.2924ZM84.4484 80.6316C84.868 80.0928 85.2668 79.4337 85.5408 78.6415C85.717 78.1322 85.9589 77.435 85.7958 76.5428C85.6286 75.6293 85.1297 75.0302 84.9155 74.7745C84.6363 74.4394 84.3509 74.1975 82.7982 73.2833C81.678 72.624 81.1639 72.3262 80.7203 72.1714C80.1198 71.9634 79.2988 71.678 78.2526 71.8439C77.4137 71.9759 76.8049 72.3352 76.5174 72.5377C75.7026 73.1096 75.2724 73.8628 75.0476 74.4282C72.69 73.6731 70.106 73.2543 67.3966 73.2543C56.9068 73.2543 48.2875 79.5078 47.5053 87.418H48.5715C49.3635 80.0937 57.5013 74.3157 67.3966 74.3157C70.8663 74.3157 74.1178 75.0291 76.9152 76.2672C76.7464 76.7185 76.5903 77.1733 76.4532 77.6298C75.7815 79.8743 75.9163 80.7457 76.0752 81.2059C76.2396 81.6799 76.6529 82.5513 77.5775 83.0606C78.075 83.3342 78.5705 83.422 79.0411 83.422C79.5068 83.422 79.9484 83.3363 80.3423 83.2596C80.7728 83.1753 81.6358 82.9452 82.5826 82.3488C82.7991 82.2126 83.2404 81.9011 83.7296 81.4282C85.1084 83.2161 85.9865 85.2487 86.2211 87.418H87.2872C87.043 84.9479 86.0401 82.6384 84.4484 80.6316ZM83.0536 80.6087C82.6131 81.0447 82.2104 81.3287 82.0173 81.4505C81.2157 81.9549 80.4964 82.1477 80.1364 82.2182C79.4509 82.3516 78.7412 82.4898 78.0895 82.1305C77.4759 81.7933 77.1926 81.1886 77.0786 80.859C76.8644 80.2398 77.1732 78.9269 77.4704 77.9346C77.5919 77.5283 77.7325 77.124 77.881 76.7219C78.0026 76.3925 78.1391 76.0686 78.2778 75.7446C78.353 75.5688 78.4193 75.3897 78.4993 75.2161L77.5347 74.7724C77.4561 74.9432 77.3912 75.1194 77.3171 75.2921C76.9031 75.1091 76.4829 74.9335 76.0511 74.7731C76.2249 74.3542 76.5463 73.814 77.1276 73.4056C77.3398 73.2563 77.7903 72.991 78.4178 72.8929C79.2028 72.7692 79.8233 72.9841 80.372 73.1741C80.7196 73.295 81.2296 73.5922 82.2599 74.1982C83.7117 75.053 83.9245 75.243 84.1008 75.4545C84.2742 75.6625 84.6349 76.0951 84.7517 76.7343C84.8643 77.3513 84.6909 77.8523 84.5375 78.2946C84.3335 78.8843 84.046 79.3806 83.7385 79.805C83.5131 80.1161 83.2806 80.384 83.0536 80.6087Z" fill="#FCFCFC"/>
</svg>
