<svg width="43" height="47" viewBox="0 0 43 47" fill="none" xmlns="http://www.w3.org/2000/svg">
<path d="M32.2921 24.8611H28.8909V18.7699H31.2554V19.0969C31.2554 19.185 31.3068 19.2645 31.3854 19.2982C31.4115 19.3094 31.4389 19.3148 31.466 19.3148C31.5208 19.3148 31.5746 19.2927 31.6149 19.251L32.1412 18.7061C32.2234 18.6209 32.2234 18.483 32.1412 18.3978L31.6149 17.8529C31.5546 17.7906 31.4641 17.772 31.3854 17.8057C31.3068 17.8394 31.2554 17.9189 31.2554 18.007V18.334H28.8909V11.0237C28.8909 10.4586 28.4479 10 27.902 10H15.1451C14.9048 10 14.6836 10.0887 14.5123 10.2369C14.3826 10.3487 14.2809 10.495 14.2202 10.6618C14.1787 10.7742 14.1563 10.896 14.1563 11.0237V14.977H11.35C10.8821 14.977 10.5026 15.3694 10.5005 15.8538C10.5005 15.8522 10.5 15.8511 10.5 15.85V21.885C10.5 22.419 10.9184 22.8517 11.4337 22.8517H12.7643C12.9096 22.8517 13.0274 22.7298 13.0274 22.5792V21.952H14.1563V27.9237H12.163C12.0467 27.9237 11.9525 28.0212 11.9525 28.1416C11.9525 28.2621 12.0467 28.3596 12.163 28.3596H14.1563V35.9763C14.1563 36.5414 14.5993 37 15.1451 37H27.902C28.4479 37 28.8909 36.5414 28.8909 35.9763V31.8359H32.2921C32.4069 31.8359 32.5 31.7395 32.5 31.6208V25.0762C32.5 24.9573 32.4069 24.8611 32.2921 24.8611ZM22.7856 10.8713H23.6277C23.744 10.8713 23.8382 10.9689 23.8382 11.0893C23.8382 11.2097 23.744 11.3073 23.6277 11.3073H22.7856C22.6693 11.3073 22.5751 11.2097 22.5751 11.0893C22.5751 10.9689 22.6693 10.8713 22.7856 10.8713ZM19.4171 10.8713H21.5224C21.6387 10.8713 21.7329 10.9689 21.7329 11.0893C21.7329 11.2097 21.6387 11.3073 21.5224 11.3073H19.4171C19.3008 11.3073 19.2065 11.2097 19.2065 11.0893C19.2065 10.9689 19.3008 10.8713 19.4171 10.8713ZM14.1563 21.516V21.5161H13.0274V16.9949C13.0274 16.8444 12.9096 16.7224 12.7643 16.7224H11.3427C11.2884 16.7224 11.2353 16.717 11.1842 16.7066C11.03 16.6761 10.9211 16.5322 10.9211 16.3704V15.9121C10.9211 15.6365 11.1369 15.413 11.4032 15.413H23.1708V21.5161H14.9962V21.516H14.1563ZM21.5217 35.9412C21.2392 35.9412 21.0103 35.7041 21.0103 35.4118C21.0103 35.1194 21.2392 34.8824 21.5217 34.8824C21.8041 34.8824 22.033 35.1194 22.033 35.4118C22.033 35.7041 21.8041 35.9412 21.5217 35.9412ZM28.0492 33.6233C28.0492 33.8184 27.8966 33.9758 27.7081 33.9758H15.3368C15.1483 33.9758 14.9962 33.8184 14.9962 33.6233V28.3596H17.0915V28.6866C17.0915 28.7253 17.1015 28.7624 17.1194 28.7945C17.1421 28.8353 17.1779 28.8685 17.2215 28.8876C17.2479 28.8991 17.2747 28.9045 17.3021 28.9045C17.3568 28.9045 17.4105 28.8822 17.451 28.8402L17.9774 28.2953C18.0595 28.2102 18.0595 28.0724 17.9774 27.9874L17.451 27.4425C17.3905 27.3798 17.3005 27.3613 17.2215 27.3951C17.1431 27.4289 17.0915 27.5084 17.0915 27.5967V27.9237H14.9962V21.952H23.1708V22.6925C23.1708 22.9334 23.3594 23.1287 23.5921 23.1287C23.8248 23.1287 24.0135 22.9334 24.0135 22.6925V21.952V18.7699H25.0471C25.1634 18.7699 25.2577 18.6723 25.2577 18.5519C25.2577 18.4316 25.1634 18.334 25.0471 18.334H24.0135V14.977V14.4115C24.0135 14.1706 23.8248 13.9753 23.5921 13.9753C23.3594 13.9753 23.1708 14.1706 23.1708 14.4115V14.977H14.9962V12.9675C14.9962 12.7729 15.1483 12.6149 15.3368 12.6149H27.7081C27.8966 12.6149 28.0492 12.7729 28.0492 12.9675V18.334H26.3268C26.2106 18.334 26.1163 18.4316 26.1163 18.5519C26.1163 18.6723 26.2106 18.7699 26.3268 18.7699H28.0492V24.861H19.8693V24.4231C19.8693 24.1822 19.6807 23.9869 19.448 23.9869C19.2153 23.9869 19.0267 24.1822 19.0267 24.4231V24.861H19.0266H19.026V31.8359H19.0266H19.0267V32.2689C19.0267 32.5098 19.2153 32.7051 19.448 32.7051C19.6807 32.7051 19.8693 32.5098 19.8693 32.2689V31.8359H28.0492V33.6233ZM32.0789 31.2942C32.0789 31.3526 32.0332 31.3999 31.9768 31.3999H28.8909H28.0492H19.8693V30.9642H21.9437V30.5273H19.8693V25.2969H28.0492H28.8908H31.9767C32.0331 25.2969 32.0788 25.3443 32.0788 25.4026V31.2942H32.0789Z" fill="#2A2A2A"/>
<path d="M23.0711 27.0801H13.6426V28.4301H23.0711V27.0801Z" fill="#2A2A2A"/>
<path d="M18.3569 29.7803H13.6426V31.1303H18.3569V29.7803Z" fill="#2A2A2A"/>
<path d="M29.3557 27.0801H26.2129V31.1301H29.3557V27.0801Z" fill="#2A2A2A"/>
</svg>
