<svg width="46" height="34" viewBox="0 0 46 34" fill="none" xmlns="http://www.w3.org/2000/svg">
<path d="M22.2642 4.48492C22.2642 3.10941 21.1451 1.99023 19.7695 1.99023C18.3943 1.99023 17.2756 3.10932 17.2756 4.48492C17.2756 5.86053 18.3943 6.97961 19.7695 6.97961C21.1451 6.97961 22.2642 5.86053 22.2642 4.48492ZM18.2028 4.48492C18.2028 3.6206 18.9056 2.91732 19.7696 2.91732C20.6339 2.91732 21.3372 3.62051 21.3372 4.48492C21.3372 5.34934 20.634 6.05253 19.7696 6.05253C18.9056 6.05253 18.2028 5.34934 18.2028 4.48492Z" fill="#E84526"/>
<path d="M20.1166 11.693C20.5454 11.2086 24.3065 6.89287 24.3065 4.53613C24.3065 2.03495 22.2712 0 19.7695 0C17.2683 0 15.2334 2.03486 15.2334 4.53613C15.2334 6.89277 18.9936 11.2086 19.4224 11.6929L19.7694 12.085L20.1166 11.693ZM16.1606 4.53622C16.1606 2.54623 17.7795 0.927176 19.7696 0.927176C21.7601 0.927176 23.3795 2.54614 23.3795 4.53622C23.3795 6.07842 21.0274 9.18508 19.7696 10.6761C18.512 9.18536 16.1606 6.07954 16.1606 4.53622Z" fill="#E84526"/>
<path d="M7.97116 26.1523H3.50317V27.0794H7.97116V26.1523Z" fill="#E84526"/>
<path d="M2.42293 26.1523H0.962402V27.0794H2.42293V26.1523Z" fill="#E84526"/>
<path d="M7.97111 28.6846H5.27441V29.6117H7.97111V28.6846Z" fill="#E84526"/>
<path d="M17.1572 19.2373H14.7817V20.1644H17.1572V19.2373Z" fill="#E84526"/>
<path d="M3.23608 9.83799V18.6645H4.25161H6.87795L11.7736 22.3477C11.7589 22.4765 11.7469 22.607 11.7382 22.7395C10.34 23.9546 9.47498 25.6224 9.47498 27.4606V29.4058H11.1575C11.2957 30.9185 12.1025 32.2399 13.2794 33.0726H6.78561V33.9996H24.0294V33.0726H19.1049C19.6929 32.6566 20.1885 32.1188 20.5547 31.4956H23.6686L25.154 30.729C25.5635 30.9518 26.0325 31.0785 26.5303 31.0785H33.2413L33.4604 31.0782L33.5995 30.9093C33.6074 30.8996 33.7635 30.7132 34.0521 30.4165C34.4182 31.5213 35.1569 32.4528 36.109 33.0726H28.2939V33.9996H45.0375V33.0726H41.6117C42.9956 32.1694 43.9129 30.6084 43.9129 28.8362C43.9129 27.7136 43.535 26.6278 42.858 25.748C43.342 25.686 43.8399 25.6519 44.3509 25.6519C44.7395 25.6519 44.8682 25.387 44.8983 25.3058C45.0529 24.8898 44.6858 24.5732 44.1301 24.094C44.005 23.9861 43.8868 23.8843 43.8184 23.8155C42.7027 22.6989 41.2979 21.9786 39.7738 21.7202L35.9748 12.4106H37.12V11.976H37.2151C38.0306 11.976 38.6941 11.3126 38.6941 10.4971V10.4653C38.6941 9.64989 38.0306 8.98637 37.2151 8.98637H37.12V8.55176H33.9134C32.8484 8.55176 31.982 9.41821 31.982 10.4832V11.3806C31.982 11.4153 31.9838 11.4495 31.9872 11.4834H31.4223L29.4504 9.51138H27.1343V10.4385H29.0664L31.0383 12.4105H32.8983L31.8693 15.5287L33.2588 23.7592C32.5757 24.4262 32.0172 25.223 31.6255 26.1126H26.3629C26.1133 25.6008 25.9112 25.0679 25.7588 24.5164C25.0749 22.0382 25.5973 19.8495 26.0419 18.6294C26.5255 18.5076 26.885 18.0702 26.885 17.5494C26.885 16.0313 25.6499 14.7962 24.1318 14.7962H14.5895C13.5231 14.7962 12.6554 15.6638 12.6554 16.7303C12.6554 17.0994 12.7612 17.4435 12.9414 17.7373H12.0626V9.83799H3.23608ZM4.16317 17.7374V10.7651H11.1355V17.7374H4.25161H4.16317ZM10.4021 27.4606C10.4021 24.2638 13.5025 21.6629 17.3135 21.6629H19.0648C21.5864 21.6629 23.6379 23.3731 23.6379 25.4754V27.718V28.1815V28.4786H21.2284C20.9936 25.9064 18.8249 23.8847 16.1929 23.8847C13.5605 23.8847 11.3914 25.9064 11.1566 28.4786H10.4022L10.4021 27.4606ZM12.0893 28.4786C12.3205 26.4186 14.0722 24.8118 16.1928 24.8118C18.3131 24.8118 20.0644 26.4186 20.2955 28.4786H12.0893ZM17.5597 29.4057C17.3659 29.9753 16.827 30.3866 16.1928 30.3866C15.5582 30.3866 15.019 29.9752 14.8252 29.4057H17.5597ZM16.1919 33.0725C14.0716 33.0725 12.3203 31.4656 12.0892 29.4057H13.8661C14.0824 30.4922 15.0432 31.3137 16.1928 31.3137C17.3419 31.3137 18.3025 30.4922 18.5187 29.4057H20.2955C20.2497 29.814 20.1445 30.2046 19.988 30.5684H18.3449V31.4955H19.4347C18.6778 32.4548 17.5059 33.0725 16.1919 33.0725ZM23.4436 30.5684H20.9794C21.1056 30.198 21.1903 29.8089 21.2271 29.4057H23.9095C24.0272 29.6572 24.1798 29.8889 24.3611 30.095L23.4436 30.5684ZM42.9859 28.8362C42.9859 31.1132 41.133 32.9656 38.8556 32.9656C36.9046 32.9656 35.2093 31.5712 34.8133 29.6845C35.2728 29.2698 35.8545 28.7892 36.5437 28.3073C36.5047 28.4775 36.4836 28.6542 36.4836 28.836C36.4836 30.1438 37.5476 31.2079 38.8556 31.2079C40.1635 31.2079 41.2275 30.1438 41.2275 28.836C41.2275 27.8072 40.5691 26.9296 39.6516 26.6018C40.3219 26.3297 41.0372 26.0985 41.7932 25.9326C42.5537 26.7044 42.9859 27.7497 42.9859 28.8362ZM37.8168 27.8341L38.4437 29.0486L39.2675 28.6233L38.6406 27.4088C38.7109 27.3983 38.7823 27.391 38.8556 27.391C39.6523 27.391 40.3004 28.0392 40.3004 28.836C40.3004 29.6327 39.6523 30.2808 38.8556 30.2808C38.0588 30.2808 37.4107 29.6327 37.4107 28.836C37.4107 28.447 37.5659 28.0941 37.8168 27.8341ZM37.2152 9.91346C37.5195 9.91346 37.7671 10.161 37.7671 10.4653V10.4971C37.7671 10.8014 37.5195 11.0489 37.2152 11.0489H37.1201V9.91346H37.2152ZM32.9092 11.3807V10.4832C32.9092 9.9294 33.3596 9.47893 33.9135 9.47893H36.193V11.4836H33.9042H33.012C32.9552 11.4835 32.9092 11.4373 32.9092 11.3807ZM32.8218 15.6011L33.8744 12.411H34.9738L38.7305 21.6171C38.6552 21.615 38.5802 21.6116 38.5046 21.6116C36.8654 21.6116 35.3314 22.1495 34.0816 23.064L32.8218 15.6011ZM38.5047 22.5387C40.2637 22.5387 41.9178 23.2248 43.1622 24.4704C43.2446 24.5529 43.3567 24.6508 43.4774 24.7552C40.3132 24.9757 37.7121 26.3516 36.0347 27.5214C34.4402 28.6334 33.3967 29.7371 33.0291 30.1513H26.5303C25.6073 30.1513 24.8311 29.5105 24.6209 28.6494H28.1011L28.0974 28.6449L31.9245 28.6447L31.9786 28.2432C32.4179 24.9911 35.2234 22.5387 38.5047 22.5387ZM31.2887 27.0397C31.2244 27.2616 31.1694 27.4875 31.1253 27.7177L27.3571 27.7179C27.1884 27.4974 27.0305 27.2711 26.8831 27.0398H31.2887V27.0397ZM26.2178 27.7179L24.5648 27.718V25.4754C24.5648 22.862 22.0975 20.7358 19.0647 20.7358H17.3134C15.617 20.7358 14.0462 21.202 12.7619 21.9909C13.0304 20.4598 13.7126 19.2727 14.1277 18.6648H25.0492C24.5994 20.0457 24.1768 22.2681 24.8653 24.7631C25.1557 25.8153 25.6094 26.8056 26.2178 27.7179ZM14.5895 15.7234H24.1319C25.1388 15.7234 25.958 16.5426 25.958 17.5495C25.958 17.653 25.8737 17.7374 25.7701 17.7374H14.5895C14.0343 17.7374 13.5825 17.2856 13.5825 16.7304C13.5825 16.1752 14.0343 15.7234 14.5895 15.7234ZM13.0315 18.6645C12.6542 19.3049 12.2155 20.218 11.9532 21.3226L8.42006 18.6645H12.0626H13.0315Z" fill="#E84526"/>
<path d="M10.3082 11.8701H7.64893V12.7972H10.3082V11.8701Z" fill="#E84526"/>
<path d="M26.9341 33.0723H25.3281V33.9993H26.9341V33.0723Z" fill="#E84526"/>
<path d="M5.71932 33.0723H4.25146V33.9993H5.71932V33.0723Z" fill="#E84526"/>
</svg>
