<svg width="20" height="21" viewBox="0 0 20 21" fill="none" xmlns="http://www.w3.org/2000/svg">
<path d="M6.70001 6.79492C7.52844 6.79492 8.20001 7.46649 8.20001 8.29492C8.20001 9.12335 7.52844 9.79492 6.70001 9.79492C5.87158 9.79492 5.20001 9.12335 5.20001 8.29492C5.20001 7.46649 5.87158 6.79492 6.70001 6.79492Z" fill="#363636"/>
<path d="M14.8 8.29492C14.8 7.46649 14.1284 6.79492 13.3 6.79492C12.4716 6.79492 11.8 7.46649 11.8 8.29492C11.8 9.12335 12.4716 9.79492 13.3 9.79492C14.1284 9.79492 14.8 9.12335 14.8 8.29492Z" fill="#363636"/>
<path d="M8.70711 14.0878C8.31658 13.6973 7.68342 13.6973 7.29289 14.0878C6.90237 14.4783 6.90237 15.1115 7.29289 15.502C8.78799 16.9971 11.212 16.9971 12.7071 15.502C13.0976 15.1115 13.0976 14.4783 12.7071 14.0878C12.3166 13.6973 11.6834 13.6973 11.2929 14.0878C10.5788 14.8019 9.42115 14.8019 8.70711 14.0878Z" fill="#363636"/>
<path fill-rule="evenodd" clip-rule="evenodd" d="M10 0.794922C4.47715 0.794922 0 5.27207 0 10.7949C0 16.3178 4.47715 20.7949 10 20.7949C15.5228 20.7949 20 16.3178 20 10.7949C20 5.27207 15.5228 0.794922 10 0.794922ZM2 10.7949C2 6.37664 5.58172 2.79492 10 2.79492C14.4183 2.79492 18 6.37664 18 10.7949C18 15.2132 14.4183 18.7949 10 18.7949C5.58172 18.7949 2 15.2132 2 10.7949Z" fill="#363636"/>
</svg>
