<svg width="18" height="25" viewBox="0 0 18 25" fill="none" xmlns="http://www.w3.org/2000/svg">
<path fill-rule="evenodd" clip-rule="evenodd" d="M17.661 5.92023L13.8137 2.07297V5.92023H17.661ZM3.80772 21.328H17.9353V6.30814H13.6198C13.5125 6.30814 13.4258 6.21983 13.4258 6.11416V1.79707C10.2203 1.79546 7.01322 1.79707 3.80767 1.79707V20.6564L3.80772 21.328ZM3.41991 20.4577V1.6047V1.59841V1.59363L3.42152 1.58895V1.58417L3.42469 1.56525C3.442 1.47699 3.52075 1.41077 3.61384 1.41077H12.4121L12.144 0.926758H2.44549V20.4577H3.41991V20.4577ZM7.05423 4.11324H4.75552V4.48228H7.05423V4.11324ZM4.56144 3.72538H7.24831C7.35393 3.72538 7.44223 3.81218 7.44223 3.91931V4.67615C7.44223 4.78338 7.35393 4.87008 7.24831 4.87008H4.56144C4.45426 4.87008 4.36751 4.78333 4.36751 4.67615V3.91936C4.36751 3.81218 4.45421 3.72538 4.56144 3.72538ZM10.5358 4.11324H8.23687V4.48228H10.5358V4.11324ZM8.04294 3.72538H10.7297C10.8353 3.72538 10.9235 3.81218 10.9235 3.91931V4.67615C10.9235 4.78338 10.8353 4.87008 10.7297 4.87008H8.04294C7.93576 4.87008 7.84886 4.78333 7.84886 4.67615V3.91936C7.84891 3.81218 7.93576 3.72538 8.04294 3.72538ZM7.05423 6.15668H4.75552V6.52567H7.05423V6.15668ZM4.56144 5.76882H7.24831C7.35393 5.76882 7.44223 5.85552 7.44223 5.9628V6.71955C7.44223 6.82688 7.35393 6.91352 7.24831 6.91352H4.56144C4.45426 6.91352 4.36751 6.82683 4.36751 6.71955V5.9628C4.36751 5.85552 4.45421 5.76882 4.56144 5.76882ZM10.5358 6.15668H8.23687V6.52567H10.5358V6.15668ZM8.04294 5.76882H10.7297C10.8353 5.76882 10.9235 5.85552 10.9235 5.9628V6.71955C10.9235 6.82688 10.8353 6.91352 10.7297 6.91352H8.04294C7.93576 6.91352 7.84886 6.82683 7.84886 6.71955V5.9628C7.84891 5.85552 7.93576 5.76882 8.04294 5.76882ZM7.05423 8.20017H4.75552V8.57077H7.05423V8.20017ZM4.56144 7.81388H7.24831C7.35393 7.81388 7.44223 7.90063 7.44223 8.00625V8.76465C7.44223 8.87032 7.35393 8.95702 7.24831 8.95702H4.56144C4.45426 8.95702 4.36751 8.87027 4.36751 8.76465V8.00625C4.36751 7.90063 4.45421 7.81388 4.56144 7.81388ZM16.4958 8.20017H8.23682V8.57077H16.4957L16.4958 8.20017ZM8.04294 7.81388H16.6897C16.7968 7.81388 16.8836 7.90063 16.8836 8.00625V8.76465C16.8836 8.87032 16.7968 8.95702 16.6897 8.95702H8.04294C7.93576 8.95702 7.84886 8.87027 7.84886 8.76465V8.00625C7.84891 7.90063 7.93576 7.81388 8.04294 7.81388ZM7.05423 10.2452H4.75552V10.6142H7.05423V10.2452ZM4.56144 9.85732H7.24831C7.35393 9.85732 7.44223 9.94402 7.44223 10.0513V10.808C7.44223 10.9137 7.35393 11.002 7.24831 11.002H4.56144C4.45426 11.002 4.36751 10.9137 4.36751 10.808V10.0513C4.36751 9.94402 4.45421 9.85732 4.56144 9.85732ZM16.4958 10.2452H8.23682V10.6142H16.4957L16.4958 10.2452ZM8.04294 9.85732H16.6897C16.7968 9.85732 16.8836 9.94402 16.8836 10.0513V10.808C16.8836 10.9137 16.7968 11.002 16.6897 11.002H8.04294C7.93576 11.002 7.84886 10.9137 7.84886 10.808V10.0513C7.84891 9.94402 7.93576 9.85732 8.04294 9.85732ZM7.05423 12.2887H4.75552V12.6577H7.05423V12.2887ZM4.56144 11.9008H7.24831C7.35393 11.9008 7.44223 11.9875 7.44223 12.0947V12.8515C7.44223 12.9587 7.35393 13.0455 7.24831 13.0455H4.56144C4.45426 13.0455 4.36751 12.9587 4.36751 12.8515V12.0947C4.36751 11.9875 4.45421 11.9008 4.56144 11.9008ZM16.4958 12.2887H8.23682V12.6577H16.4957L16.4958 12.2887ZM8.04294 11.9008H16.6897C16.7968 11.9008 16.8836 11.9875 16.8836 12.0947V12.8515C16.8836 12.9587 16.7968 13.0455 16.6897 13.0455H8.04294C7.93576 13.0455 7.84886 12.9587 7.84886 12.8515V12.0947C7.84891 11.9875 7.93576 11.9008 8.04294 11.9008ZM7.05423 14.3321H4.75552V14.7011H7.05423V14.3321ZM4.56144 13.9443H7.24831C7.35393 13.9443 7.44223 14.031 7.44223 14.1381V14.895C7.44223 15.0023 7.35393 15.089 7.24831 15.089H4.56144C4.45426 15.089 4.36751 15.0023 4.36751 14.895V14.1381C4.36751 14.031 4.45421 13.9443 4.56144 13.9443ZM16.4958 14.3321H8.23682V14.7011H16.4957L16.4958 14.3321ZM8.04294 13.9443H16.6897C16.7968 13.9443 16.8836 14.031 16.8836 14.1381V14.895C16.8836 15.0023 16.7968 15.089 16.6897 15.089H8.04294C7.93576 15.089 7.84886 15.0023 7.84886 14.895V14.1381C7.84891 14.031 7.93576 13.9443 8.04294 13.9443ZM7.05423 16.3756H4.75552V16.7444H7.05423V16.3756ZM4.56144 15.9877H7.24831C7.35393 15.9877 7.44223 16.0744 7.44223 16.1816V16.9385C7.44223 17.0457 7.35393 17.1324 7.24831 17.1324H4.56144C4.45426 17.1324 4.36751 17.0457 4.36751 16.9385V16.1816C4.36751 16.0743 4.45421 15.9877 4.56144 15.9877ZM16.4958 16.3756H8.23682V16.7444H16.4957L16.4958 16.3756ZM8.04294 15.9877H16.6897C16.7968 15.9877 16.8836 16.0744 16.8836 16.1816V16.9385C16.8836 17.0457 16.7968 17.1324 16.6897 17.1324H8.04294C7.93576 17.1324 7.84886 17.0457 7.84886 16.9385V16.1816C7.84891 16.0743 7.93576 15.9877 8.04294 15.9877ZM7.05423 18.419H4.75552V18.7895H7.05423V18.419ZM4.56144 18.0311H7.24831C7.35393 18.0311 7.44223 18.1194 7.44223 18.2251V18.982C7.44223 19.0891 7.35393 19.1759 7.24831 19.1759H4.56144C4.45426 19.1759 4.36751 19.0891 4.36751 18.982V18.2251C4.36751 18.1194 4.45421 18.0311 4.56144 18.0311ZM16.4958 18.419H8.23682V18.7895H16.4957L16.4958 18.419ZM2.59363 23.0341C2.48645 23.0341 2.3997 22.9474 2.3997 22.8401C2.3997 22.7345 2.4864 22.6462 2.59363 22.6462H12.6107C12.7179 22.6462 12.8046 22.7345 12.8046 22.8401C12.8046 22.9475 12.7179 23.0341 12.6107 23.0341H2.59363ZM7.65976 24.0732C7.55258 24.0732 7.46583 23.9865 7.46583 23.8792C7.46583 23.772 7.55253 23.6853 7.65976 23.6853H15.9266C16.0338 23.6853 16.1205 23.772 16.1205 23.8792C16.1205 23.9865 16.0338 24.0732 15.9266 24.0732H7.65976ZM16.7732 24.0732C16.666 24.0732 16.5793 23.9865 16.5793 23.8792C16.5793 23.772 16.666 23.6853 16.7732 23.6853H17.8061C17.9133 23.6853 18 23.772 18 23.8792C18 23.9865 17.9133 24.0732 17.8061 24.0732H16.7732ZM0.193928 24.0417C0.0867496 24.0417 0 23.955 0 23.8477C0 23.7405 0.0866993 23.6538 0.193928 23.6538H4.11058C4.21776 23.6538 4.30451 23.7405 4.30451 23.8477C4.30451 23.955 4.21781 24.0417 4.11058 24.0417H0.193928ZM8.04294 18.0311H16.6897C16.7968 18.0311 16.8836 18.1194 16.8836 18.2251V18.982C16.8836 19.0891 16.7968 19.1759 16.6897 19.1759H8.04294C7.93576 19.1759 7.84886 19.0891 7.84886 18.982V18.2251C7.84891 18.1194 7.93576 18.0311 8.04294 18.0311Z" fill="#E84526"/>
</svg>
