<svg width="24" height="25" viewBox="0 0 24 25" fill="none" xmlns="http://www.w3.org/2000/svg">
<path d="M5.18288 9.5932C5.66396 9.75356 6.04147 10.1311 6.20183 10.6121C6.36503 11.1018 7.05757 11.1018 7.22078 10.6121C7.38114 10.1311 7.75864 9.75356 8.23972 9.5932C8.72933 9.42999 8.72933 8.73745 8.23972 8.57425C7.75864 8.41389 7.38114 8.03638 7.22078 7.5553C7.05757 7.06569 6.36503 7.06569 6.20183 7.5553C6.04147 8.03638 5.66396 8.41389 5.18288 8.57425C4.69327 8.73745 4.69327 9.42999 5.18288 9.5932Z" fill="#363636"/>
<path fill-rule="evenodd" clip-rule="evenodd" d="M5 2.79492C2.79086 2.79492 1 4.58578 1 6.79492V18.7949C1 21.0041 2.79086 22.7949 5 22.7949H19C21.2091 22.7949 23 21.0041 23 18.7949V6.79492C23 4.58578 21.2091 2.79492 19 2.79492H5ZM21 14.5931V6.79492C21 5.69035 20.1046 4.79492 19 4.79492H5C3.89543 4.79492 3 5.69035 3 6.79492V18.7949C3 19.8995 3.89543 20.7949 5 20.7949H5.14267C5.05007 20.5113 5 20.2084 5 19.8938C5 19.2989 5.18287 18.7185 5.52383 18.231L8.33552 14.2112C9.22169 12.9443 10.9256 12.5583 12.2712 13.3197L12.5869 13.4984L13.0596 12.8231C13.9945 11.4875 15.8249 11.143 17.1814 12.0473L21 14.5931ZM11.4347 15.1444L11.2863 15.0604C10.8378 14.8066 10.2698 14.9352 9.9744 15.3575L7.1627 19.3773C7.0568 19.5287 7 19.709 7 19.8938C7 20.3915 7.40344 20.7949 7.90111 20.7949H9.01216C8.70586 19.937 8.78063 18.9359 9.38362 18.0745L11.4347 15.1444ZM11.8413 20.7949H19C20.1046 20.7949 21 19.8995 21 18.7949V17.532C21 17.1976 20.8329 16.8854 20.5547 16.6999L16.072 13.7114C15.6198 13.41 15.0097 13.5248 14.6981 13.97L11.0221 19.2215C10.5581 19.8842 11.0323 20.7949 11.8413 20.7949Z" fill="#363636"/>
</svg>
