<svg width="28" height="28" viewBox="0 0 28 28" fill="none" xmlns="http://www.w3.org/2000/svg">
<path d="M27.4231 15.0062C27.4974 14.9708 27.5599 14.9148 27.6032 14.8448C27.6465 14.7748 27.6687 14.6939 27.6673 14.6116C27.6658 14.5293 27.6408 14.4492 27.5951 14.3808C27.5493 14.3124 27.4849 14.2585 27.4095 14.2257L9.20376 6.33759C9.0019 6.25065 8.78072 6.21832 8.56242 6.24384C8.34412 6.26936 8.13637 6.35184 7.96001 6.483C7.78365 6.61416 7.64488 6.78939 7.55761 6.99112C7.47035 7.19284 7.43767 7.41396 7.46285 7.6323L7.99561 12.2293C8.00086 12.2756 8.02103 12.3189 8.05308 12.3527C8.08514 12.3865 8.12732 12.409 8.17326 12.4167L21.9786 14.6774C22.0328 14.6846 22.0821 14.7124 22.1164 14.7549C22.1508 14.7974 22.1675 14.8515 22.1632 14.906C22.1588 14.9605 22.1338 15.0113 22.0931 15.0478C22.0525 15.0844 21.9994 15.104 21.9448 15.1026L8.57521 15.1823C8.54509 15.1825 8.51535 15.1891 8.48792 15.2015C8.4605 15.214 8.436 15.2321 8.41604 15.2546C8.39608 15.2772 8.38109 15.3037 8.37206 15.3325C8.36302 15.3612 8.36014 15.3915 8.3636 15.4214L9.11249 21.9077C9.13561 22.1048 9.20544 22.2936 9.31617 22.4583C9.4269 22.6231 9.57535 22.759 9.74917 22.8548C9.92299 22.9506 10.1172 23.0036 10.3156 23.0093C10.514 23.015 10.7109 22.9733 10.8899 22.8876L27.4231 15.0062Z" fill="#E84526"/>
<path d="M6.91153 14.9185C6.90709 14.8804 6.89251 14.8441 6.86931 14.8134C6.84611 14.7828 6.81513 14.7589 6.7796 14.7443C6.74406 14.7297 6.70525 14.7248 6.66721 14.7303C6.62916 14.7357 6.59326 14.7512 6.56324 14.7752C5.85825 15.3441 4.16988 16.7067 4.16988 16.7067C4.03788 16.8133 3.94045 16.9566 3.88989 17.1185C3.83933 17.2804 3.83792 17.4537 3.88583 17.6165C3.93375 17.7792 4.02884 17.9241 4.15908 18.0328C4.28933 18.1415 4.44888 18.2092 4.61756 18.2272L7.05136 18.4877C7.0833 18.491 7.11556 18.487 7.14579 18.4762C7.17601 18.4654 7.20344 18.4479 7.22605 18.4251C7.24866 18.4024 7.26589 18.3748 7.27647 18.3445C7.28706 18.3142 7.29073 18.2819 7.28722 18.25L6.91153 14.9185Z" fill="#E84526"/>
</svg>
